<?xml version="1.0" encoding="UTF-8"?>
<svg id="Camada_2" xmlns="http://www.w3.org/2000/svg" xmlns:xlink="http://www.w3.org/1999/xlink" viewBox="0 0 582.92 493.57">
  <defs>
    <style>
      .cls-1 {
        fill: #ffa300;
      }

      .cls-2 {
        fill: url(#Gradiente_sem_nome_4);
      }

      .cls-3 {
        fill: #f0f2f1;
      }
    </style>
    <linearGradient id="Gradiente_sem_nome_4" data-name="Gradiente sem nome 4" x1="33.04" y1="511.27" x2="117.19" y2="397.49" gradientUnits="userSpaceOnUse">
      <stop offset="0" stop-color="#fff"/>
      <stop offset="1" stop-color="#ffa300"/>
    </linearGradient>
  </defs>
  <g id="Camada_1-2" data-name="Camada_1">
    <g>
      <path class="cls-1" d="M227.92,348.89v96.58h-83.14c.51-2.4.92-4.85,1.23-7.34l36.86-36.81,6.25-7.28,38.8-45.15Z"/>
      <path class="cls-1" d="M345.4,0c-45.98,14.38-79.72,45.32-90.94,89.24-1.53,4.49-2.89,9.08-3.91,13.86h-22.63v149.12c-32.56,27.97-65.12,55.94-97.69,83.92l-7.44,6.4-3.69,3.77V103.1H14.73V0h330.67Z"/>
      <g>
        <path class="cls-3" d="M306.89,243.17c-23.82,27.74-47.63,55.44-71.39,83.09-1.74,2.02-3.47,4.04-5.2,6.06-.8.92-1.59,1.84-2.38,2.76-13.27,15.46-26.54,30.9-39.8,46.31-3.16,3.67-8.75,3.91-12.21.52-11.22-10.98-22.21-21.72-33.28-32.55-3.51-3.44-3.33-9.15.4-12.35,28.3-24.31,56.6-48.62,84.89-72.93,17.29-14.85,34.57-29.7,51.86-44.55,7.47,8.74,16.59,16.68,27.11,23.64Z"/>
        <path class="cls-3" d="M428.95,101.16c-14.29,16.62-28.57,33.24-42.85,49.85-.34-.21-.66-.43-.98-.64-4.64-3.12-7.97-6.51-9.92-10.07-.36-.66-.67-1.31-.92-1.97,14.92-12.81,29.83-25.63,44.75-38.44,1.14.06,2.25.15,3.3.26,1.82.19,3.55.44,5.19.74h.05c.46.09.92.18,1.38.27Z"/>
      </g>
      <path class="cls-2" d="M137.08,437.01c-.36,2.85-.86,5.68-1.52,8.46-5.06,21.57-19.12,40.39-43.59,45.86-6.93,1.55-13.7,2.24-20.36,2.24-25.01,0-48.32-9.74-71.61-20.17,1.51-.43,3.03-.82,4.52-1.32,9.62-3.22,19.55-5.77,28.79-9.87,10.87-4.82,17.07-13.41,16.49-26.07-.2-4.16.61-8.36,1.05-12.54,2.25-21.66,15.41-34.4,37.22-35.87.1-.01.2-.01.31-.01,1.5,0,3.37.65,4.38,1.65,8.82,8.72,17.61,17.48,26.34,26.28,5.36,5.38,10.69,10.78,16.01,16.19,1.21,1.23,2.17,3.53,1.97,5.17Z"/>
      <path class="cls-3" d="M172.34,398c-6,6.15-12,12.29-17.86,18.29-4.36,4.46-11.52,4.52-15.95.13-6.48-6.42-12.96-12.84-19.44-19.27-3.57-3.55-7.15-7.09-10.73-10.64-4.43-4.39-4.43-11.55-.01-15.95,3.58-3.56,7.16-7.12,10.74-10.67,2.52-2.5,5.04-5,7.55-7.5,15.37,15.33,30.73,30.68,45.69,45.61Z"/>
      <path class="cls-1" d="M582.92,311.6c0,70.06-60.85,133.98-168.4,133.98-79.28,0-154.26-30.73-173.31-110.62l97.1-30.12c5.53,24.58,28.27,51.01,74.98,51.01,36.26,0,63.3-14.13,63.3-42.4,0-31.97-42.4-36.88-90.96-49.17-25.56-6.21-46.94-14.1-64.37-24.01-1.34-.75-2.65-1.53-3.94-2.32-1.31-.78-2.6-1.59-3.86-2.42-10.24-6.65-18.92-14.13-26.09-22.52-.98-1.15-1.94-2.32-2.85-3.5-.94-1.18-1.84-2.38-2.7-3.6-14.18-19.83-20.95-44.31-20.95-74.38C260.87,49.17,329.09,0,418.82,0c73.75,0,136.44,39.34,153.04,107.55l-97.11,23.98c-3.68-13.89-12.79-27.79-29.5-35.54-1.4-.65-2.85-1.26-4.36-1.82-1.49-.55-3.03-1.06-4.63-1.52-2.21-.63-4.52-1.17-6.94-1.6-1.91-.35-3.89-.63-5.93-.84-2.07-.22-4.21-.36-6.42-.43-1.01-.03-2.03-.05-3.07-.05-30.72,0-51.01,16.6-51.01,41.18,0,1.73.13,3.4.4,5,.27,1.7.68,3.32,1.23,4.87.51,1.5,1.15,2.93,1.9,4.3,2.91,5.34,7.47,9.79,13.11,13.58,1.23.83,2.52,1.63,3.86,2.41,1.31.75,2.67,1.48,4.06,2.18,17.6,8.88,41.33,13.59,59.64,18.67,105.1,29.5,135.83,62.69,135.83,129.68Z"/>
    </g>
  </g>
</svg>