<?xml version="1.0" encoding="UTF-8"?>
<svg id="Camada_2" xmlns="http://www.w3.org/2000/svg" viewBox="0 0 369.09 289.45">
  <defs>
    <style>
      .cls-1 {
        fill: #ffa300;
      }
    </style>
  </defs>
  <g id="Camada_1-2" data-name="Camada_1">
    <g>
      <path class="cls-1" d="M369.09,202.41c0,45.51-39.52,87.03-109.39,87.03-51.5,0-100.21-19.96-112.58-71.86l63.08-19.56c3.59,15.97,18.37,33.14,48.71,33.14,23.56,0,41.12-9.18,41.12-27.55,0-20.76-27.55-23.96-59.09-31.94-55.89-13.57-81.04-39.52-81.04-86.23C159.89,31.94,204.21,0,262.49,0c47.91,0,88.63,25.55,99.41,69.86l-63.08,15.57c-3.59-13.58-15.17-27.15-39.52-27.15-19.96,0-33.14,10.78-33.14,26.75,0,21.96,33.14,27.15,54.7,33.14,68.27,19.16,88.23,40.72,88.23,84.24Z"/>
      <path class="cls-1" d="M155.73,57.97C163.02,29.44,184.94,9.34,214.8,0H0v66.97h67.79v222.41h70.69V66.97h14.7c.66-3.11,1.55-6.09,2.54-9Z"/>
    </g>
  </g>
</svg>