<?xml version="1.0" encoding="UTF-8"?>
<svg id="Camada_2" xmlns="http://www.w3.org/2000/svg" viewBox="0 0 517.81 283.81">
  <defs>
    <style>
      .cls-1 {
        fill: #ffa300;
      }
    </style>
  </defs>
  <g id="Camada_1-2" data-name="Camada_1">
    <g>
      <path class="cls-1" d="M313.02,256.02c-2,1.49-2.94,3.88-2.67,6.2-17.02,10.21-38.47,15.59-62.49,15.59-50.09,0-86.07-19.53-99.89-53.83,1.61-1.68,2.33-4.14,1.65-6.54-1.02-3.6-4.76-5.69-8.35-4.67-3.6,1.02-5.69,4.76-4.67,8.35.77,2.71,3.09,4.57,5.72,4.88,14.68,36.83,52.71,57.81,105.54,57.81,25.19,0,47.75-5.71,65.74-16.54,2.28,1.36,5.25,1.3,7.51-.39,3-2.23,3.62-6.47,1.38-9.47s-6.47-3.62-9.47-1.38Z"/>
      <path class="cls-1" d="M341.57,184.79c.51,3.7,3.92,6.29,7.62,5.79s6.29-3.92,5.79-7.62c-.4-2.91-2.6-5.13-5.32-5.7-8.64-27.13-37.75-48.81-82.94-61.5-2.67-.74-5.48-1.46-8.45-2.22-19.28-4.92-41.14-10.5-41.14-26.26,0-13.56,11.14-22.33,28.37-22.33,12.99,0,23.19,4.48,29.37,12.73-1.1,1.73-1.41,3.93-.64,6,1.31,3.5,5.2,5.28,8.71,3.98,3.5-1.31,5.28-5.2,3.98-8.71-1.08-2.89-3.93-4.6-6.86-4.38-5.34-7.4-15.55-15.63-34.54-15.63-20.56,0-34.37,11.38-34.37,28.33,0,20.43,25.31,26.89,45.66,32.08,2.94.75,5.72,1.46,8.32,2.18,42.98,12.06,70.61,32.24,78.74,57.23-1.66,1.45-2.59,3.68-2.27,6.02Z"/>
      <path class="cls-1" d="M432.08,115.76c-2.67-.74-5.48-1.46-8.45-2.22-19.28-4.92-41.14-10.5-41.14-26.26,0-13.56,11.14-22.33,28.37-22.33,12.99,0,23.18,4.48,29.36,12.73-1.1,1.73-1.42,3.93-.64,6,1.3,3.5,5.2,5.28,8.7,3.98,3.5-1.3,5.28-5.2,3.98-8.7-1.08-2.89-3.93-4.61-6.86-4.38-5.34-7.4-15.55-15.62-34.54-15.62-20.56,0-34.37,11.38-34.37,28.33,0,20.43,25.31,26.89,45.66,32.08,2.94.75,5.72,1.46,8.32,2.18,61.58,17.28,81.34,35.96,81.34,76.87s-34.54,79.4-100.57,79.4c-22.12,0-53.41-3.95-76.89-22.77-1.1-.88-2.06-1.69-2.97-2.5-.9-.79-1.82-1.65-2.81-2.61-7.49-7.33-13.27-16.03-17.24-25.94,1.61-1.67,2.33-4.13,1.66-6.53-1.01-3.6-4.75-5.7-8.34-4.69s-5.7,4.75-4.69,8.34c.76,2.72,3.08,4.58,5.72,4.89,4.28,10.77,10.55,20.24,18.7,28.21,1.06,1.04,2.06,1.96,3.02,2.82.98.87,2.02,1.75,3.2,2.69,24.83,19.91,57.56,24.09,80.64,24.09,31.86,0,59.02-8.91,78.55-25.77,18.07-15.6,28.02-36.77,28.02-59.63,0-43.8-21.63-64.66-85.73-82.65Z"/>
      <path class="cls-1" d="M344.24,37.57c1.71-1.78,2.25-4.25,1.65-6.47,16.88-13.78,40.73-21.32,68-21.32,41.2,0,74.05,19.76,87.34,51.98-1.59,1.68-2.28,4.14-1.6,6.53,1.04,3.59,4.79,5.66,8.38,4.63,3.59-1.03,5.66-4.79,4.63-8.38-.78-2.72-3.13-4.57-5.78-4.85-6.7-16.35-18.23-30.01-33.66-39.77-16.7-10.56-37.21-16.14-59.31-16.14-28.75,0-54.01,8.08-71.98,22.83-2.48-1.01-5.44-.48-7.41,1.57-2.59,2.69-2.52,6.97.17,9.57s6.97,2.52,9.57-.17Z"/>
      <path class="cls-1" d="M372.91,198.56c-1.17-3.55-4.99-5.48-8.54-4.31-3.55,1.17-5.48,4.99-4.31,8.54.96,2.9,3.69,4.72,6.6,4.65,5.68,9.02,18.1,21.18,43.83,21.18s41.94-11.14,41.94-29.08c0-19.32-21.4-24.38-46.17-30.24-3.9-.92-7.94-1.88-12.06-2.92-46.5-11.29-69.5-31.87-73.71-66.29,2.03-1.23,3.35-3.48,3.27-6.02-.13-3.73-3.26-6.66-6.99-6.53s-6.66,3.26-6.53,6.99c.09,2.77,1.85,5.1,4.27,6.06,4.39,37.38,28.81,59.61,78.25,71.61,4.14,1.05,8.2,2.01,12.12,2.93,26.54,6.27,41.55,10.5,41.55,24.4s-13.44,23.08-35.94,23.08-33.46-10.23-38.51-17.99c1.22-1.7,1.64-3.93.94-6.06Z"/>
      <path class="cls-1" d="M67.18,267.91V67.17H12.83c-1.11-2.23-3.4-3.77-6.06-3.77-3.74,0-6.77,3.03-6.77,6.77s3.03,6.77,6.77,6.77c2.66,0,4.95-1.54,6.06-3.77h48.35v194.74c-2.23,1.11-3.77,3.4-3.77,6.06,0,3.74,3.03,6.77,6.77,6.77s6.77-3.03,6.77-6.77c0-2.66-1.54-4.95-3.77-6.06Z"/>
      <path class="cls-1" d="M134.11,267.91V73.17h15.44c-.77,4.67-1.17,9.5-1.17,14.49,0,45.21,24.37,71.29,78.99,84.55,4.14,1.05,8.2,2.01,12.12,2.94,26.54,6.27,41.55,10.5,41.55,24.4s-13.43,23.08-35.93,23.08-33.47-10.23-38.51-18c1.22-1.7,1.64-3.93.94-6.06-1.17-3.55-5-5.48-8.55-4.31-3.55,1.17-5.48,5-4.31,8.55.96,2.9,3.69,4.72,6.6,4.65,5.68,9.02,18.11,21.18,43.83,21.18s41.93-11.14,41.93-29.08c0-19.32-21.4-24.38-46.17-30.24-3.9-.92-7.94-1.88-12.06-2.92-52.18-12.67-74.44-36.21-74.44-78.72,0-46.59,37.83-77.89,94.14-77.89,29.83,0,56.66,10.94,73.61,30.01.8.89,1.62,1.86,2.56,3.03.83,1.03,1.65,2.12,2.46,3.26,3.49,4.85,6.4,10.11,8.71,15.69-1.6,1.68-2.29,4.14-1.6,6.53,1.04,3.59,4.79,5.66,8.38,4.63,3.59-1.04,5.66-4.79,4.63-8.38-.78-2.71-3.12-4.56-5.76-4.85-2.5-6.09-5.67-11.83-9.47-17.11-.86-1.21-1.75-2.4-2.67-3.53-1.02-1.26-1.9-2.29-2.76-3.25-17.31-19.48-44.13-31-74.07-31.95v-.07H12.83c-1.11-2.23-3.4-3.77-6.06-3.77C3.03,0,0,3.03,0,6.77s3.03,6.77,6.77,6.77c2.66,0,4.95-1.54,6.06-3.77h195.43c-11.69,3.74-22.17,9.15-30.87,16.11-13.59,10.86-22.59,24.91-26.61,41.29h-22.66v200.74c-2.23,1.11-3.77,3.4-3.77,6.06,0,3.74,3.03,6.77,6.77,6.77s6.77-3.03,6.77-6.77c0-2.66-1.54-4.95-3.77-6.06Z"/>
    </g>
  </g>
</svg>